{
    "asset" : {
        "generator" : "Khronos glTF Blender I/O v3.2.43",
        "version" : "2.0"
    },
    "extensionsUsed" : [
        "KHR_materials_transmission"
    ],
    "scene" : 0,
    "scenes" : [
        {
            "name" : "Scene",
            "nodes" : [
                0,
                1,
                2,
                3,
                4,
                5,
                6,
                7,
                8,
                9,
                10
            ]
        }
    ],
    "nodes" : [
        {
            "mesh" : 0,
            "name" : "Spiral",
            "rotation" : [
                -0.05367501452565193,
                -0.008149731904268265,
                -0.07689927518367767,
                0.9955596923828125
            ],
            "scale" : [
                0.05163552612066269,
                0.05163552239537239,
                0.05163552984595299
            ],
            "translation" : [
                -1.1542901992797852,
                0.7164275646209717,
                0.4528846740722656
            ]
        },
        {
            "name" : "Circle",
            "rotation" : [
                0.6329708695411682,
                -0.6371537446975708,
                0.012319608591496944,
                0.43958091735839844
            ],
            "scale" : [
                0.5773125290870667,
                0.5773125886917114,
                0.5773125290870667
            ],
            "translation" : [
                0.9932749271392822,
                0.1727399230003357,
                -0.7795502543449402
            ]
        },
        {
            "mesh" : 1,
            "name" : "Sphere",
            "rotation" : [
                0.6329708695411682,
                -0.6371537446975708,
                0.012319585308432579,
                0.43958091735839844
            ],
            "scale" : [
                0.45668140053749084,
                0.45668143033981323,
                0.45668140053749084
            ],
            "translation" : [
                0.9403351545333862,
                0.6031819581985474,
                -0.7525394558906555
            ]
        },
        {
            "mesh" : 2,
            "name" : "Plane",
            "rotation" : [
                0.6329708099365234,
                -0.6371537446975708,
                0.012319608591496944,
                0.43958091735839844
            ],
            "scale" : [
                0.11961816251277924,
                0.11961815506219864,
                0.11961816251277924
            ],
            "translation" : [
                0.9741787314414978,
                0.5847278833389282,
                -0.774745762348175
            ]
        },
        {
            "mesh" : 3,
            "name" : "Sphere.001",
            "rotation" : [
                0.6329708695411682,
                -0.6371537446975708,
                0.012319608591496944,
                0.43958091735839844
            ],
            "scale" : [
                0.1320972740650177,
                0.1320972889661789,
                0.1320972889661789
            ],
            "translation" : [
                1.2601724863052368,
                0.5178858041763306,
                -0.9645119905471802
            ]
        },
        {
            "name" : "Sphere.002",
            "rotation" : [
                0.29217690229415894,
                0.0809503048658371,
                0.5616373419761658,
                0.7698332667350769
            ],
            "scale" : [
                0.8248396515846252,
                0.8248396515846252,
                0.8248396515846252
            ],
            "translation" : [
                -0.845567524433136,
                0.613348126411438,
                0.43368256092071533
            ]
        },
        {
            "mesh" : 4,
            "name" : "Circle.001",
            "rotation" : [
                0.6329708695411682,
                -0.6371537446975708,
                0.012319608591496944,
                0.43958091735839844
            ],
            "scale" : [
                0.5773125290870667,
                0.5773125886917114,
                0.5773125290870667
            ],
            "translation" : [
                1.01474130153656,
                0.5851233601570129,
                -0.8017639517784119
            ]
        },
        {
            "mesh" : 5,
            "name" : "Sphere.003",
            "rotation" : [
                0.29217690229415894,
                0.0809503123164177,
                0.5616373419761658,
                0.7698332667350769
            ],
            "scale" : [
                0.9760091304779053,
                0.9760091304779053,
                0.97600919008255
            ],
            "translation" : [
                -0.9917318820953369,
                1.0783882141113281,
                0.5468037724494934
            ]
        },
        {
            "mesh" : 6,
            "name" : "Plane.001",
            "scale" : [
                24.172494888305664,
                24.172494888305664,
                24.172494888305664
            ],
            "translation" : [
                -0.18963001668453217,
                0.08822793513536453,
                0.1372094303369522
            ]
        },
        {
            "mesh" : 7,
            "name" : "Circle.002",
            "rotation" : [
                0.3262818455696106,
                0.04426372051239014,
                0.534584105014801,
                0.7783320546150208
            ],
            "scale" : [
                0.2583446502685547,
                0.2583446502685547,
                0.2583446800708771
            ],
            "translation" : [
                -0.9408178329467773,
                1.2054860591888428,
                0.34317928552627563
            ]
        },
        {
            "mesh" : 8,
            "name" : "Circle.003",
            "rotation" : [
                0.32840496301651,
                0.043658554553985596,
                0.5369429588317871,
                0.7758455872535706
            ],
            "scale" : [
                0.2583446502685547,
                0.2583446502685547,
                0.2583446800708771
            ],
            "translation" : [
                -1.0169544219970703,
                0.6875514984130859,
                0.3815193772315979
            ]
        }
    ],
    "materials" : [
        {
            "doubleSided" : true,
            "name" : "Metal.001",
            "pbrMetallicRoughness" : {
                "baseColorFactor" : [
                    0.4186401963233948,
                    0.19240249693393707,
                    0.02225991152226925,
                    1
                ]
            }
        },
        {
            "doubleSided" : true,
            "name" : "Metal",
            "pbrMetallicRoughness" : {
                "baseColorFactor" : [
                    0.41863876581192017,
                    0.41863876581192017,
                    0.41863876581192017,
                    1
                ]
            }
        },
        {
            "doubleSided" : true,
            "name" : "Metal.002",
            "pbrMetallicRoughness" : {
                "baseColorFactor" : [
                    0.5382243990898132,
                    0.5382243990898132,
                    0.5382243990898132,
                    1
                ]
            }
        },
        {
            "doubleSided" : true,
            "extensions" : {
                "KHR_materials_transmission" : {
                    "transmissionFactor" : 1
                }
            },
            "name" : "Glass",
            "pbrMetallicRoughness" : {
                "baseColorFactor" : [
                    0.9621026515960693,
                    1,
                    0.0007188540184870362,
                    1
                ],
                "metallicFactor" : 0,
                "roughnessFactor" : 0.009999999776482582
            }
        },
        {
            "doubleSided" : true,
            "name" : "Material.001",
            "pbrMetallicRoughness" : {
                "baseColorFactor" : [
                    0.8000000715255737,
                    0.34208032488822937,
                    0.051990706473588943,
                    1
                ],
                "metallicFactor" : 0,
                "roughnessFactor" : 0.5
            }
        }
    ],
    "meshes" : [
        {
            "name" : "Spiral",
            "primitives" : [
                {
                    "attributes" : {
                        "POSITION" : 0,
                        "NORMAL" : 1,
                        "TEXCOORD_0" : 2
                    },
                    "indices" : 3,
                    "material" : 0
                }
            ]
        },
        {
            "name" : "Sphere",
            "primitives" : [
                {
                    "attributes" : {
                        "POSITION" : 4,
                        "NORMAL" : 5,
                        "TEXCOORD_0" : 6
                    },
                    "indices" : 7,
                    "material" : 1
                }
            ]
        },
        {
            "name" : "Plane",
            "primitives" : [
                {
                    "attributes" : {
                        "POSITION" : 8,
                        "NORMAL" : 9,
                        "TEXCOORD_0" : 10
                    },
                    "indices" : 11,
                    "material" : 2
                }
            ]
        },
        {
            "name" : "Sphere.001",
            "primitives" : [
                {
                    "attributes" : {
                        "POSITION" : 12,
                        "NORMAL" : 13,
                        "TEXCOORD_0" : 14
                    },
                    "indices" : 7,
                    "material" : 1
                }
            ]
        },
        {
            "name" : "Circle.001",
            "primitives" : [
                {
                    "attributes" : {
                        "POSITION" : 15,
                        "NORMAL" : 16,
                        "TEXCOORD_0" : 17
                    },
                    "indices" : 18,
                    "material" : 1
                }
            ]
        },
        {
            "name" : "Sphere.003",
            "primitives" : [
                {
                    "attributes" : {
                        "POSITION" : 19,
                        "NORMAL" : 20,
                        "TEXCOORD_0" : 21
                    },
                    "indices" : 22,
                    "material" : 3
                }
            ]
        },
        {
            "name" : "Plane.001",
            "primitives" : [
                {
                    "attributes" : {
                        "POSITION" : 23,
                        "NORMAL" : 24,
                        "TEXCOORD_0" : 25
                    },
                    "indices" : 11,
                    "material" : 4
                }
            ]
        },
        {
            "name" : "Circle.003",
            "primitives" : [
                {
                    "attributes" : {
                        "POSITION" : 26,
                        "NORMAL" : 27,
                        "TEXCOORD_0" : 28
                    },
                    "indices" : 29,
                    "material" : 1
                }
            ]
        },
        {
            "name" : "Circle.004",
            "primitives" : [
                {
                    "attributes" : {
                        "POSITION" : 30,
                        "NORMAL" : 31,
                        "TEXCOORD_0" : 32
                    },
                    "indices" : 33,
                    "material" : 1
                }
            ]
        }
    ],
    "accessors" : [
        {
            "bufferView" : 0,
            "componentType" : 5126,
            "count" : 511,
            "max" : [
                1.396369457244873,
                10.666648864746094,
                1.3974876403808594
            ],
            "min" : [
                -1.398400902748108,
                -0.3852688670158386,
                -1.374903917312622
            ],
            "type" : "VEC3"
        },
        {
            "bufferView" : 1,
            "componentType" : 5126,
            "count" : 511,
            "type" : "VEC3"
        },
        {
            "bufferView" : 2,
            "componentType" : 5126,
            "count" : 511,
            "type" : "VEC2"
        },
        {
            "bufferView" : 3,
            "componentType" : 5123,
            "count" : 2592,
            "type" : "SCALAR"
        },
        {
            "bufferView" : 4,
            "componentType" : 5126,
            "count" : 559,
            "max" : [
                0.9999997019767761,
                1,
                0.9999994039535522
            ],
            "min" : [
                -0.9999990463256836,
                -1,
                -0.9999987483024597
            ],
            "type" : "VEC3"
        },
        {
            "bufferView" : 5,
            "componentType" : 5126,
            "count" : 559,
            "type" : "VEC3"
        },
        {
            "bufferView" : 6,
            "componentType" : 5126,
            "count" : 559,
            "type" : "VEC2"
        },
        {
            "bufferView" : 7,
            "componentType" : 5123,
            "count" : 2880,
            "type" : "SCALAR"
        },
        {
            "bufferView" : 8,
            "componentType" : 5126,
            "count" : 4,
            "max" : [
                4.081750404338891e-08,
                0.34240204095840454,
                4.254682540893555
            ],
            "min" : [
                -4.081750404338891e-08,
                -0.34240204095840454,
                3.569878339767456
            ],
            "type" : "VEC3"
        },
        {
            "bufferView" : 9,
            "componentType" : 5126,
            "count" : 4,
            "type" : "VEC3"
        },
        {
            "bufferView" : 10,
            "componentType" : 5126,
            "count" : 4,
            "type" : "VEC2"
        },
        {
            "bufferView" : 11,
            "componentType" : 5123,
            "count" : 6,
            "type" : "SCALAR"
        },
        {
            "bufferView" : 12,
            "componentType" : 5126,
            "count" : 559,
            "max" : [
                0.9999997019767761,
                1,
                0.9999994039535522
            ],
            "min" : [
                -0.9999990463256836,
                -1,
                -0.9999987483024597
            ],
            "type" : "VEC3"
        },
        {
            "bufferView" : 13,
            "componentType" : 5126,
            "count" : 559,
            "type" : "VEC3"
        },
        {
            "bufferView" : 14,
            "componentType" : 5126,
            "count" : 559,
            "type" : "VEC2"
        },
        {
            "bufferView" : 15,
            "componentType" : 5126,
            "count" : 96,
            "max" : [
                0.9445892572402954,
                2.2468080520629883,
                0.9445892572402954
            ],
            "min" : [
                -0.9445892572402954,
                0.004898548126220703,
                -0.9445892572402954
            ],
            "type" : "VEC3"
        },
        {
            "bufferView" : 16,
            "componentType" : 5126,
            "count" : 96,
            "type" : "VEC3"
        },
        {
            "bufferView" : 17,
            "componentType" : 5126,
            "count" : 96,
            "type" : "VEC2"
        },
        {
            "bufferView" : 18,
            "componentType" : 5123,
            "count" : 630,
            "type" : "SCALAR"
        },
        {
            "bufferView" : 19,
            "componentType" : 5126,
            "count" : 494,
            "max" : [
                0.9999997019767761,
                1,
                0.9999994039535522
            ],
            "min" : [
                -0.9999990463256836,
                -1.1969809532165527,
                -0.9999987483024597
            ],
            "type" : "VEC3"
        },
        {
            "bufferView" : 20,
            "componentType" : 5126,
            "count" : 494,
            "type" : "VEC3"
        },
        {
            "bufferView" : 21,
            "componentType" : 5126,
            "count" : 494,
            "type" : "VEC2"
        },
        {
            "bufferView" : 22,
            "componentType" : 5123,
            "count" : 2682,
            "type" : "SCALAR"
        },
        {
            "bufferView" : 23,
            "componentType" : 5126,
            "count" : 4,
            "max" : [
                1,
                0,
                1
            ],
            "min" : [
                -1,
                0,
                -1
            ],
            "type" : "VEC3"
        },
        {
            "bufferView" : 24,
            "componentType" : 5126,
            "count" : 4,
            "type" : "VEC3"
        },
        {
            "bufferView" : 25,
            "componentType" : 5126,
            "count" : 4,
            "type" : "VEC2"
        },
        {
            "bufferView" : 26,
            "componentType" : 5126,
            "count" : 140,
            "max" : [
                0.05706711485981941,
                0.46148794889450073,
                0.06000003218650818
            ],
            "min" : [
                -0.057063452899456024,
                -4.079396724700928,
                -0.06000000238418579
            ],
            "type" : "VEC3"
        },
        {
            "bufferView" : 27,
            "componentType" : 5126,
            "count" : 140,
            "type" : "VEC3"
        },
        {
            "bufferView" : 28,
            "componentType" : 5126,
            "count" : 140,
            "type" : "VEC2"
        },
        {
            "bufferView" : 29,
            "componentType" : 5123,
            "count" : 228,
            "type" : "SCALAR"
        },
        {
            "bufferView" : 30,
            "componentType" : 5126,
            "count" : 140,
            "max" : [
                0.057067785412073135,
                0.46148794889450073,
                0.06000003218650818
            ],
            "min" : [
                -0.057063452899456024,
                -4.229089736938477,
                -0.060000017285346985
            ],
            "type" : "VEC3"
        },
        {
            "bufferView" : 31,
            "componentType" : 5126,
            "count" : 140,
            "type" : "VEC3"
        },
        {
            "bufferView" : 32,
            "componentType" : 5126,
            "count" : 140,
            "type" : "VEC2"
        },
        {
            "bufferView" : 33,
            "componentType" : 5123,
            "count" : 228,
            "type" : "SCALAR"
        }
    ],
    "bufferViews" : [
        {
            "buffer" : 0,
            "byteLength" : 6132,
            "byteOffset" : 0
        },
        {
            "buffer" : 0,
            "byteLength" : 6132,
            "byteOffset" : 6132
        },
        {
            "buffer" : 0,
            "byteLength" : 4088,
            "byteOffset" : 12264
        },
        {
            "buffer" : 0,
            "byteLength" : 5184,
            "byteOffset" : 16352
        },
        {
            "buffer" : 0,
            "byteLength" : 6708,
            "byteOffset" : 21536
        },
        {
            "buffer" : 0,
            "byteLength" : 6708,
            "byteOffset" : 28244
        },
        {
            "buffer" : 0,
            "byteLength" : 4472,
            "byteOffset" : 34952
        },
        {
            "buffer" : 0,
            "byteLength" : 5760,
            "byteOffset" : 39424
        },
        {
            "buffer" : 0,
            "byteLength" : 48,
            "byteOffset" : 45184
        },
        {
            "buffer" : 0,
            "byteLength" : 48,
            "byteOffset" : 45232
        },
        {
            "buffer" : 0,
            "byteLength" : 32,
            "byteOffset" : 45280
        },
        {
            "buffer" : 0,
            "byteLength" : 12,
            "byteOffset" : 45312
        },
        {
            "buffer" : 0,
            "byteLength" : 6708,
            "byteOffset" : 45324
        },
        {
            "buffer" : 0,
            "byteLength" : 6708,
            "byteOffset" : 52032
        },
        {
            "buffer" : 0,
            "byteLength" : 4472,
            "byteOffset" : 58740
        },
        {
            "buffer" : 0,
            "byteLength" : 1152,
            "byteOffset" : 63212
        },
        {
            "buffer" : 0,
            "byteLength" : 1152,
            "byteOffset" : 64364
        },
        {
            "buffer" : 0,
            "byteLength" : 768,
            "byteOffset" : 65516
        },
        {
            "buffer" : 0,
            "byteLength" : 1260,
            "byteOffset" : 66284
        },
        {
            "buffer" : 0,
            "byteLength" : 5928,
            "byteOffset" : 67544
        },
        {
            "buffer" : 0,
            "byteLength" : 5928,
            "byteOffset" : 73472
        },
        {
            "buffer" : 0,
            "byteLength" : 3952,
            "byteOffset" : 79400
        },
        {
            "buffer" : 0,
            "byteLength" : 5364,
            "byteOffset" : 83352
        },
        {
            "buffer" : 0,
            "byteLength" : 48,
            "byteOffset" : 88716
        },
        {
            "buffer" : 0,
            "byteLength" : 48,
            "byteOffset" : 88764
        },
        {
            "buffer" : 0,
            "byteLength" : 32,
            "byteOffset" : 88812
        },
        {
            "buffer" : 0,
            "byteLength" : 1680,
            "byteOffset" : 88844
        },
        {
            "buffer" : 0,
            "byteLength" : 1680,
            "byteOffset" : 90524
        },
        {
            "buffer" : 0,
            "byteLength" : 1120,
            "byteOffset" : 92204
        },
        {
            "buffer" : 0,
            "byteLength" : 456,
            "byteOffset" : 93324
        },
        {
            "buffer" : 0,
            "byteLength" : 1680,
            "byteOffset" : 93780
        },
        {
            "buffer" : 0,
            "byteLength" : 1680,
            "byteOffset" : 95460
        },
        {
            "buffer" : 0,
            "byteLength" : 1120,
            "byteOffset" : 97140
        },
        {
            "buffer" : 0,
            "byteLength" : 456,
            "byteOffset" : 98260
        }
    ],
    "buffers" : [
        {
            "byteLength" : 98716,
            "uri" : "Bulb.bin"
        }
    ]
}
